<?xml version="1.0" encoding="utf-8"?>
<!-- Generator: Adobe Illustrator 27.2.0, SVG Export Plug-In . SVG Version: 6.00 Build 0)  -->
<svg version="1.1" id="Layer_1" xmlns="http://www.w3.org/2000/svg" xmlns:xlink="http://www.w3.org/1999/xlink" x="0px" y="0px"
	 viewBox="0 0 589.14 541.75" style="enable-background:new 0 0 589.14 541.75;" xml:space="preserve">
<style type="text/css">
	.st0{fill:#FFFFFF;}
</style>
<g>
	<path d="M41.39,52.1c0,146.23,0,291.92,0,437.78c48.73,0,145.2,0,193.99,0c12.85-131.75-88.86-59.76-88.86-271.41h25.36
		c0.27,2.8,0.56,5.72,0.87,8.77c10.58,103.27,110.4,175.51,214.16,175.83c70.5,0.22,81.41,0.01,151.9,0c2.81,0,5.61,0.16,8.8,0
		c0-48.71,0-214.36,0-263.59c-4.14,0-7.29,0-10.44,0c-68.75,0-35.47,84.52-146.68,117.62c-68.48,20.38-134.77,18.32-152.92-38.63
		h11.95c251.4,0,148.05-124.3,298.23-124.3c0-12.13,0-17.86,0-20.35c0,0.02,0-0.4,0-1.71c0-2.47,0-8.11,0-20.01
		C352.69,52.1,236.08,52.1,41.39,52.1z"/>
</g>
<g>
	<path class="st0" d="M104.45,468.26H67.86v-25.38h4.86v19.75h11v-15.97h4.86v15.97h15.87V468.26z"/>
	<path class="st0" d="M77.89,427.46h4.81c-0.1,0.61-0.15,1.08-0.15,1.69c0,4.55,3.43,7.83,8.39,7.83h13.51V442h-26.1v-5.02h4.96
		v-0.1c-3.28-1.38-5.58-3.48-5.58-7.01C77.73,428.95,77.79,428.23,77.89,427.46z"/>
	<path class="st0" d="M92.73,401.34v20.06c4.35-0.1,8.39-2.66,8.39-7.83c0-4.61-2.97-6.4-4.71-6.86v-5.12
		c5.02,1.38,8.8,5.22,8.8,12.08c0,8.29-5.89,12.9-13.87,12.9c-8.19,0-13.82-4.91-13.82-12.9c0-7.93,5.22-12.38,13.31-12.38
		C91.55,401.28,92.32,401.28,92.73,401.34z M88.79,406.5c-4.09,0-7.16,2.87-7.16,7.32c0,4.2,2.87,7.27,7.16,7.57V406.5z"/>
	<path class="st0" d="M92.73,373.69v20.06c4.35-0.1,8.39-2.66,8.39-7.83c0-4.61-2.97-6.4-4.71-6.86v-5.12
		c5.02,1.38,8.8,5.22,8.8,12.08c0,8.29-5.89,12.9-13.87,12.9c-8.19,0-13.82-4.91-13.82-12.9c0-7.93,5.22-12.38,13.31-12.38
		C91.55,373.64,92.32,373.64,92.73,373.69z M88.79,378.86c-4.09,0-7.16,2.87-7.16,7.32c0,4.2,2.87,7.27,7.16,7.57V378.86z"/>
	<path class="st0" d="M104.45,357.87H67.86v-25.38h4.86v19.75h11v-15.97h4.86v15.97h15.87V357.87z"/>
	<path class="st0" d="M91.4,332.31c-8.14,0-13.87-4.91-13.87-13.1c0-8.09,5.68-13,13.82-13c8.19,0,13.87,4.91,13.87,13.05
		S99.59,332.31,91.4,332.31z M91.4,311.43c-5.48,0-9.67,2.46-9.67,7.78c0,5.42,4.2,7.88,9.67,7.88c5.42,0,9.67-2.46,9.67-7.88
		C101.07,313.89,96.82,311.43,91.4,311.43z"/>
	<path class="st0" d="M77.89,288.07h4.81c-0.1,0.61-0.15,1.08-0.15,1.69c0,4.55,3.43,7.83,8.39,7.83h13.51v5.02h-26.1v-5.02h4.96
		v-0.1c-3.28-1.38-5.58-3.48-5.58-7.01C77.73,289.56,77.79,288.84,77.89,288.07z"/>
	<path class="st0" d="M104.45,276.71L67.86,263.1v-6.09l36.59-13.72v6.14l-8.8,3.02v15.3l8.8,3.02V276.71z M90.89,266.06v-12.03
		l-17.81,5.99v0.1L90.89,266.06z"/>
	<path class="st0" d="M104.45,240.71H67.86v-5.02h36.59V240.71z"/>
	<path class="st0" d="M104.45,230.81H67.86v-5.02h36.59V230.81z"/>
	<path class="st0" d="M104.45,208.65H67.86V193.4c0-8.09,3.79-12.44,10.54-12.44c4.66,0,8.04,2.81,8.96,6.86h0.1
		c1.59-8.5,16.02-5.37,16.63-7.37h0.36v6.04c-1.54,1.64-14.33-1.84-14.33,7.11v9.42h14.33V208.65z M85.26,194.63
		c0-5.17-2.25-7.98-6.45-7.98c-3.94,0-6.09,2.25-6.09,7.88v8.5h12.54V194.63z"/>
	<path class="st0" d="M97.69,177.79c-5.83,0-7.57-4.4-8.8-10.9c-0.77-4.09-1.28-6.6-3.84-6.6c-1.89,0-3.48,1.13-3.48,4.96
		c0,4.56,1.43,5.94,4.91,6.19v5.12c-5.02-0.26-8.96-3.53-8.96-11.52c0-5.37,2.25-9.67,9.01-9.67h11.98c1.89,0,2.87-0.26,2.87-1.23
		c0-0.15,0-0.31-0.05-0.61h3.07c0.2,0.87,0.31,1.74,0.31,2.56c0,2.51-0.97,3.84-3.94,4.15v0.1c2.71,1.69,4.4,4.66,4.4,8.91
		C105.17,174.47,102.15,177.79,97.69,177.79z M94.26,160.29h-3.74c0.77,0.82,1.33,3.07,1.89,5.73c0.92,4.61,2.2,6.55,4.91,6.55
		c2.46,0,3.79-1.33,3.79-4.45C101.12,163.62,98.82,160.29,94.26,160.29z"/>
	<path class="st0" d="M67.86,131.84v-5.02h36.59v5.02h-3.07v0.1c1.84,1.43,3.79,3.94,3.79,8.03c0,6.65-5.17,11.72-13.77,11.72
		c-8.6,0-13.82-5.07-13.82-11.72c0-4.09,1.89-6.6,3.94-8.03v-0.1H67.86z M91.4,131.89c-5.94,0-9.62,2.76-9.62,7.27
		c0,4.91,4.5,7.32,9.62,7.32s9.62-2.41,9.62-7.32C101.02,134.65,97.28,131.89,91.4,131.89z"/>
	<path class="st0" d="M73.69,122.15h-5.42v-5.68h5.42V122.15z M104.45,121.84h-26.1v-5.02h26.1V121.84z"/>
	<path class="st0" d="M91.4,113.37c-8.14,0-13.87-4.91-13.87-13.1c0-8.09,5.68-13,13.82-13c8.19,0,13.87,4.91,13.87,13.05
		S99.59,113.37,91.4,113.37z M91.4,92.49c-5.48,0-9.67,2.46-9.67,7.78c0,5.42,4.2,7.88,9.67,7.88c5.42,0,9.67-2.46,9.67-7.88
		C101.07,94.94,96.82,92.49,91.4,92.49z"/>
</g>
</svg>
